# xmcd
#
# Track frame offsets:
# 150
# 11437
# 19523
# 30838
# 39231
# 50669
# 60395
# 73067
# 84534
# 95319
# 106232
# 116850
# 126804
# 137872
# 147955
# 159614
# 169535
# 179436
# 187982
# 200545
# 209113
# 221459
# 233385
# 243941
# 253888
# 264688
#
# Disc length: 3687 seconds
#
#
# Revision: 0
# Processed by: cddbd v1.5PL3 Copyright (c) Steve Scherf et al.
# Submitted via: FreeRIP 2.51 
#
DISCID=6a0e651a
DTITLE=Deke Dickerson - Songs We Taught Deke - Vol. 1
DYEAR=2003
DGENRE=Rockabilly
TTITLE0=Fendermen - Mule Skinner Blues
TTITLE1=Jerry Lee Lewis - Mexicali Rose
TTITLE2=Roy Tann - Hot Rod Queen
TTITLE3=Freddie Hart - Snatch It and Grab It
TTITLE4=Ernie Chaffin - Feelin' Low
TTITLE5=Hank Penny - Peroxide Blonde
TTITLE6=Carl Sonny Leyland - Long Time in the Ground
TTITLE7=Robins - Hatchet Man
TTITLE8=Joe Maphis and Larry Collins - Rockin' Gypsy
TTITLE9=Nervous Norvus - The Fang
TTITLE10=Johnny Horton - Mean, Mean Son of a Gun
TTITLE11=Warren Smith - So Long I'm Gone
TTITLE12=Rebel Rousers - Red Headed Woman
TTITLE13=Krazy Kats - Beat Out My Love
TTITLE14=Eddie Noack - Have Blues Will Travel
TTITLE15=Grandpa Jones - Hello Blues
TTITLE16=Skeets McDonald - Don't Push Me Too Far
TTITLE17=Donald and The Delighters
TTITLE18=Ernie Chaffin - I'm Lonesome
TTITLE19=Jimmy Bryant - Georgia Boogie
TTITLE20=Carl Perkins - Look at that Moon
TTITLE21=Billy Mize - Solid Sender
TTITLE22=Bob Luman - In the Deep Dark Jungle
TTITLE23=Miller Bros. - Tulsa Baby
TTITLE24=Richie Allen - Samoa
TTITLE25=The Treniers - Poon Tang
EXTD=
EXTT0=
EXTT1=
EXTT2=
EXTT3=
EXTT4=
EXTT5=
EXTT6=
EXTT7=
EXTT8=
EXTT9=
EXTT10=
EXTT11=
EXTT12=
EXTT13=
EXTT14=
EXTT15=
EXTT16=
EXTT17=
EXTT18=
EXTT19=
EXTT20=
EXTT21=
EXTT22=
EXTT23=
EXTT24=
EXTT25=
PLAYORDER=
